<?xml version="1.0" encoding="UTF-8"?>
<svg id="Layer_2" xmlns="http://www.w3.org/2000/svg" viewBox="0 0 207.77 45.36">
  <g id="Layer_1-2" data-name="Layer_1">
    <g>
      <path d="M138.32,0c-12.53,0-22.68,10.16-22.68,22.68s10.15,22.68,22.68,22.68,22.67-10.16,22.67-22.68S150.84,0,138.32,0ZM138.32,33.94c-6.21,0-11.26-5.05-11.26-11.26s5.05-11.26,11.26-11.26,11.26,5.05,11.26,11.26-5.05,11.26-11.26,11.26Z"/>
      <polygon points="42.52 1.76 33.07 15.93 28.34 23.02 23.62 30.1 14.17 44.28 0 44.28 0 1.76 14.17 1.76 14.17 23.02 18.89 15.93 28.34 1.76 42.52 1.76"/>
      <polygon points="63.2 1.76 63.2 44.28 49.03 44.28 49.03 23.02 44.31 30.1 34.86 44.27 34.86 44.28 20.69 44.28 30.14 30.1 34.86 23.02 39.58 15.93 49.03 1.76 63.2 1.76"/>
      <polygon points="111.39 1.76 111.39 44.28 97.22 44.28 97.21 44.26 87.77 30.1 83.04 23 83.04 44.28 68.87 44.28 68.87 1.76 83.05 1.76 92.5 15.93 97.21 23 97.21 1.76 111.39 1.76"/>
      <polygon points="207.77 44.26 207.77 44.28 193.61 44.28 193.6 44.26 184.16 30.1 179.43 23 179.43 44.28 165.25 44.28 165.25 1.76 179.44 1.76 188.89 15.93 193.6 23 198.33 30.1 207.77 44.26"/>
    </g>
  </g>
</svg>