<?xml version="1.0" encoding="UTF-8"?>
<svg id="Layer_2" xmlns="http://www.w3.org/2000/svg" viewBox="0 0 512 512">
  <defs>
    <style>
      .cls-1 {
        fill: #fff;
      }
    </style>
  </defs>
  <g id="Layer_1-2" data-name="Layer_1">
    <circle cx="256" cy="256" r="256"/>
    <path class="cls-1" d="M412.49,133.31c-5.74,28.67-40.6,64.51-70.28,77.4-33.79,18.3-93.01,13.37-69.27-35.97,9.5-31.86,144.84-107.54,139.73-42.45l-.18,1.02ZM97.53,143.61c-24.12,7.62-18.09,32.05-4.03,46.41,26.14,28.28,80.5,62.45,123.43,61.46,16.89-.39,35.53-9.24,36.27-27.62-5.7-61.41-103.87-95.4-154.58-80.64l-1.09.39ZM272,418.14c19.28,17.84,37.81-.82,43.32-20.67,11.81-38.32,14.6-104.91-8.19-143.22-8.89-14.93-26.28-27.15-43.03-18.17-51.59,37.28-32.15,142.98,7,181.29l.9.78Z"/>
  </g>
</svg>